<svg width="1200" height="630" viewBox="0 0 1200 630" fill="none" xmlns="http://www.w3.org/2000/svg">
  <rect width="1200" height="630" fill="#070707"/>
  <g opacity="0.55">
    <path d="M0 90H1200" stroke="#1F1F1F"/>
    <path d="M0 180H1200" stroke="#1F1F1F"/>
    <path d="M0 270H1200" stroke="#1F1F1F"/>
    <path d="M0 360H1200" stroke="#1F1F1F"/>
    <path d="M0 450H1200" stroke="#1F1F1F"/>
    <path d="M0 540H1200" stroke="#1F1F1F"/>
    <path d="M150 0V630" stroke="#1F1F1F"/>
    <path d="M300 0V630" stroke="#1F1F1F"/>
    <path d="M450 0V630" stroke="#1F1F1F"/>
    <path d="M600 0V630" stroke="#1F1F1F"/>
    <path d="M750 0V630" stroke="#1F1F1F"/>
    <path d="M900 0V630" stroke="#1F1F1F"/>
    <path d="M1050 0V630" stroke="#1F1F1F"/>
  </g>
  <rect x="90" y="86" width="1020" height="458" rx="18" fill="#101010" stroke="#303030" stroke-width="2"/>
  <rect x="128" y="124" width="84" height="84" rx="12" fill="#181818" stroke="#404040" stroke-width="2"/>
  <path d="M150 184V148H158L182 176V148H190V184H182L158 156V184H150Z" fill="#F5F5F5"/>
  <path d="M142 196H198" stroke="#34D399" stroke-width="5" stroke-linecap="round"/>
  <text x="128" y="302" fill="#F5F5F5" font-family="Inter, Arial, sans-serif" font-size="72" font-weight="700">Notes of my road</text>
  <text x="132" y="358" fill="#A3A3A3" font-family="Inter, Arial, sans-serif" font-size="30">Documenting my journey, one note at a time.</text>
  <path d="M132 430H462" stroke="#34D399" stroke-width="8" stroke-linecap="round"/>
  <path d="M132 470H600" stroke="#525252" stroke-width="8" stroke-linecap="round"/>
  <path d="M740 182H1016" stroke="#A3A3A3" stroke-width="8" stroke-linecap="round"/>
  <path d="M740 232H1060" stroke="#525252" stroke-width="8" stroke-linecap="round"/>
  <path d="M740 282H940" stroke="#34D399" stroke-width="8" stroke-linecap="round"/>
  <path d="M740 332H1040" stroke="#525252" stroke-width="8" stroke-linecap="round"/>
  <path d="M740 382H986" stroke="#737373" stroke-width="8" stroke-linecap="round"/>
  <path d="M740 432H1060" stroke="#525252" stroke-width="8" stroke-linecap="round"/>
  <path d="M740 482H900" stroke="#34D399" stroke-width="8" stroke-linecap="round"/>
</svg>
