<svg width="960" height="720" viewBox="0 0 960 720" fill="none" xmlns="http://www.w3.org/2000/svg">
  <rect width="960" height="720" fill="#070707"/>
  <g opacity="0.55">
    <path d="M0 80H960" stroke="#1E1E1E"/>
    <path d="M0 160H960" stroke="#1E1E1E"/>
    <path d="M0 240H960" stroke="#1E1E1E"/>
    <path d="M0 320H960" stroke="#1E1E1E"/>
    <path d="M0 400H960" stroke="#1E1E1E"/>
    <path d="M0 480H960" stroke="#1E1E1E"/>
    <path d="M0 560H960" stroke="#1E1E1E"/>
    <path d="M0 640H960" stroke="#1E1E1E"/>
    <path d="M120 0V720" stroke="#1E1E1E"/>
    <path d="M240 0V720" stroke="#1E1E1E"/>
    <path d="M360 0V720" stroke="#1E1E1E"/>
    <path d="M480 0V720" stroke="#1E1E1E"/>
    <path d="M600 0V720" stroke="#1E1E1E"/>
    <path d="M720 0V720" stroke="#1E1E1E"/>
    <path d="M840 0V720" stroke="#1E1E1E"/>
  </g>
  <rect x="104" y="110" width="752" height="500" rx="16" fill="#101010" stroke="#303030" stroke-width="2"/>
  <rect x="136" y="146" width="688" height="56" rx="8" fill="#171717" stroke="#2C2C2C"/>
  <circle cx="168" cy="174" r="7" fill="#34D399"/>
  <circle cx="194" cy="174" r="7" fill="#737373"/>
  <circle cx="220" cy="174" r="7" fill="#525252"/>
  <text x="252" y="181" fill="#A3A3A3" font-family="Inter, Arial, sans-serif" font-size="18">notes-of-my-road.local</text>
  <rect x="136" y="232" width="336" height="300" rx="10" fill="#0B0B0B" stroke="#262626"/>
  <rect x="504" y="232" width="320" height="112" rx="10" fill="#0B0B0B" stroke="#262626"/>
  <rect x="504" y="376" width="320" height="156" rx="10" fill="#0B0B0B" stroke="#262626"/>
  <path d="M176 292H396" stroke="#34D399" stroke-width="8" stroke-linecap="round"/>
  <path d="M176 334H420" stroke="#A3A3A3" stroke-width="8" stroke-linecap="round"/>
  <path d="M176 376H342" stroke="#737373" stroke-width="8" stroke-linecap="round"/>
  <path d="M176 418H442" stroke="#525252" stroke-width="8" stroke-linecap="round"/>
  <path d="M176 460H300" stroke="#737373" stroke-width="8" stroke-linecap="round"/>
  <path d="M544 284H706" stroke="#E5E5E5" stroke-width="8" stroke-linecap="round"/>
  <path d="M544 316H762" stroke="#525252" stroke-width="8" stroke-linecap="round"/>
  <path d="M544 430H726" stroke="#34D399" stroke-width="8" stroke-linecap="round"/>
  <path d="M544 468H784" stroke="#737373" stroke-width="8" stroke-linecap="round"/>
  <path d="M544 506H658" stroke="#525252" stroke-width="8" stroke-linecap="round"/>
  <path d="M132 628C248 596 328 642 458 606C586 570 688 592 828 550" stroke="#34D399" stroke-width="3" stroke-linecap="round" opacity="0.8"/>
  <path d="M136 628H824" stroke="#262626" stroke-width="2"/>
</svg>
